<svg preserveAspectRatio="none" width="100%" height="100%" overflow="visible" style="display: block;" viewBox="0 0 63 63" fill="none" xmlns="http://www.w3.org/2000/svg">
<g id="ic:baseline-apple">
<g id="Vector">
<path d="M52.16 55.2532C49.1232 58.2084 45.8074 57.7418 42.6156 56.342C39.2379 54.911 36.1391 54.8488 32.5755 56.342C28.1132 58.2706 25.7581 57.7107 23.0931 55.2532C7.97086 39.6063 10.202 15.7782 27.3695 14.9072C31.5529 15.1249 34.4657 17.2091 36.9138 17.3958C40.5704 16.6492 44.0721 14.5028 47.9766 14.7828C52.6558 15.1561 56.1885 17.0225 58.5126 20.3821C48.8443 26.1991 51.1374 38.9842 60 42.5615C58.2337 47.2276 55.9406 51.8625 52.129 55.2843L52.16 55.2532ZM36.6039 14.7206C36.1391 7.78365 41.748 2.05993 48.1935 1.5C49.0922 9.52565 40.9423 15.4982 36.6039 14.7206Z" fill="var(--fill-0, black)"/>
<path d="M52.16 55.2532C49.1232 58.2084 45.8074 57.7418 42.6156 56.342C39.2379 54.911 36.1391 54.8488 32.5755 56.342C28.1132 58.2706 25.7581 57.7107 23.0931 55.2532C7.97086 39.6063 10.202 15.7782 27.3695 14.9072C31.5529 15.1249 34.4657 17.2091 36.9138 17.3958C40.5704 16.6492 44.0721 14.5028 47.9766 14.7828C52.6558 15.1561 56.1885 17.0225 58.5126 20.3821C48.8443 26.1991 51.1374 38.9842 60 42.5615C58.2337 47.2276 55.9406 51.8625 52.129 55.2843L52.16 55.2532ZM36.6039 14.7206C36.1391 7.78365 41.748 2.05993 48.1935 1.5C49.0922 9.52565 40.9423 15.4982 36.6039 14.7206Z" fill="url(#paint0_linear_0_4)"/>
</g>
</g>
<defs>
<linearGradient id="paint0_linear_0_4" x1="36.5" y1="14.1737" x2="36.5" y2="51.3105" gradientUnits="userSpaceOnUse">
<stop stop-color="white"/>
<stop offset="1" stop-color="#BDE4FF"/>
</linearGradient>
</defs>
</svg>
